<svg xmlns="http://www.w3.org/2000/svg" viewBox="0 0 200 200">
  <defs>
    <linearGradient id="bg-grad" x1="12%" y1="10%" x2="88%" y2="90%">
      <stop offset="0%" stop-color="#0b0f17"/>
      <stop offset="100%" stop-color="#1a1f2c"/>
    </linearGradient>
    <radialGradient id="car-highlight" cx="50%" cy="40%" r="60%">
      <stop offset="0%" stop-color="#ffffff" stop-opacity="0.9"/>
      <stop offset="35%" stop-color="#d7dde6" stop-opacity="0.7"/>
      <stop offset="100%" stop-color="#6b7280" stop-opacity="0.15"/>
    </radialGradient>
    <linearGradient id="car-body" x1="15%" y1="20%" x2="85%" y2="80%">
      <stop offset="0%" stop-color="#f9fafb"/>
      <stop offset="40%" stop-color="#c7ccd4"/>
      <stop offset="100%" stop-color="#6b7280"/>
    </linearGradient>
  </defs>

  <circle cx="100" cy="100" r="92" fill="url(#bg-grad)" stroke="#f3f4f6" stroke-width="6"/>

  <g fill="#ef4444">
    <path d="M26 86c28-9 54-15 76-17-18 7-40 18-62 31-5 3-10 6-14 8l-14-14c4-2 9-5 14-8z"/>
    <path d="M178 116c-28 9-54 15-76 17 18-7 40-18 62-31 5-3 10-6 14-8l14 14c-4 2-9 5-14 8z"/>
  </g>

  <g transform="translate(20 42)">
    <text x="0" y="58" font-family="'Inter','Poppins',sans-serif" font-size="46" font-weight="700" letter-spacing="1" fill="#f9fafb">car</text>
    <text x="0" y="108" font-family="'Inter','Poppins',sans-serif" font-size="46" font-weight="700" letter-spacing="1" fill="#f9fafb">export</text>
  </g>

  <g transform="translate(52 108)">
    <path d="M16 36c2-10 7-18 15-24 12-9 30-12 48-10 12 1 22 4 30 9 7 4 12 10 14 17 1 4 0 7-4 8h-6c-1 0-2 0-4-1l-18-8c-3-1-5-1-8-1h-32c-3 0-7 1-10 2l-13 5c-3 1-6 2-9 3-2 0-3-1-3-3 0-2 0-4 0-5z" fill="url(#car-body)" stroke="#0f172a" stroke-width="2" stroke-linejoin="round"/>
    <path d="M30 33c0-7 6-12 12-12h11c6 0 12 5 12 12v3H30v-3z" fill="#0f172a"/>
    <path d="M88 33c0-7-6-12-12-12H65c-6 0-12 5-12 12v3h35v-3z" fill="#0f172a"/>
    <circle cx="35" cy="39" r="11" fill="#0f172a"/>
    <circle cx="85" cy="39" r="11" fill="#0f172a"/>
    <circle cx="35" cy="39" r="5" fill="#d1d5db"/>
    <circle cx="85" cy="39" r="5" fill="#d1d5db"/>
    <path d="M25 21c4-4 11-7 19-9 8-1 18-1 28 0 10 2 18 5 23 9H25z" fill="url(#car-highlight)"/>
    <path d="M20 44l-10 4c-2 1-4 1-5-1-1-2 0-5 2-6l11-7c2-1 4-2 6-2h5c-5 3-8 7-9 12z" fill="#0f172a"/>
    <path d="M100 44l10 4c2 1 4 1 5-1 1-2 0-5-2-6l-11-7c-2-1-4-2-6-2h-5c5 3 8 7 9 12z" fill="#0f172a"/>
  </g>
</svg>
