<svg xmlns="http://www.w3.org/2000/svg" width="40" height="40" viewBox="0 0 40 40" fill="none">
  <defs>
    <linearGradient id="carGrad" x1="0%" y1="0%" x2="100%" y2="100%">
      <stop offset="0%" style="stop-color:#ffffff;stop-opacity:1" />
      <stop offset="50%" style="stop-color:#f8fafc;stop-opacity:1" />
      <stop offset="100%" style="stop-color:#e2e8f0;stop-opacity:1" />
    </linearGradient>
    <linearGradient id="headlightGrad" x1="0%" y1="0%" x2="100%" y2="100%">
      <stop offset="0%" style="stop-color:#e0f2fe;stop-opacity:1" />
      <stop offset="100%" style="stop-color:#0ea5e9;stop-opacity:1" />
    </linearGradient>
    <linearGradient id="windshieldGrad" x1="0%" y1="0%" x2="100%" y2="100%">
      <stop offset="0%" style="stop-color:#e0f2fe;stop-opacity:0.8" />
      <stop offset="100%" style="stop-color:#0ea5e9;stop-opacity:0.3" />
    </linearGradient>
  </defs>
  
  <!-- Car body (front view) -->
  <path d="M6 24h28l-2-6a3 3 0 0 0-2.8-2h-18.4a3 3 0 0 0-2.8 2L6 24z" fill="url(#carGrad)" stroke="#cbd5e1" stroke-width="0.5"/>
  
  <!-- Front bumper -->
  <rect x="8" y="24" width="24" height="2" fill="#374151" rx="1"/>
  
  <!-- Headlights (circular with glow) -->
  <circle cx="12" cy="18" r="3.5" fill="url(#headlightGrad)" stroke="#ffffff" stroke-width="1"/>
  <circle cx="28" cy="18" r="3.5" fill="url(#headlightGrad)" stroke="#ffffff" stroke-width="1"/>
  <circle cx="12" cy="18" r="2" fill="#ffffff" opacity="0.8"/>
  <circle cx="28" cy="18" r="2" fill="#ffffff" opacity="0.8"/>
  
  <!-- Turn signals (amber rectangles) -->
  <rect x="10" y="20" width="1.5" height="2" fill="#f59e0b" rx="0.3"/>
  <rect x="28.5" y="20" width="1.5" height="2" fill="#f59e0b" rx="0.3"/>
  
  <!-- Front grille -->
  <rect x="18" y="25" width="4" height="3" fill="#1f2937" rx="0.5"/>
  
  <!-- Fog lights/air intakes -->
  <ellipse cx="14" cy="27" rx="1" ry="0.8" fill="#374151"/>
  <ellipse cx="26" cy="27" rx="1" ry="0.8" fill="#374151"/>
  
  <!-- Hood with Porsche crest area -->
  <path d="M10 16h20l-0.5-1.5a2 2 0 0 0-1.8-1.2h-15.4a2 2 0 0 0-1.8 1.2L10 16z" fill="url(#carGrad)" stroke="#e2e8f0" stroke-width="0.3"/>
  
  <!-- Porsche crest (simplified) -->
  <circle cx="20" cy="13" r="1.5" fill="#dc2626" stroke="#ffffff" stroke-width="0.3"/>
  <path d="M20 12l0.5 0.8h-1z" fill="#ffffff"/>
  
  <!-- Windshield -->
  <path d="M12 14h16l-1-3a2.5 2.5 0 0 0-2.2-1.5h-9.6a2.5 2.5 0 0 0-2.2 1.5L12 14z" fill="url(#windshieldGrad)" stroke="#0ea5e9" stroke-width="0.3"/>
  
  <!-- Side mirrors -->
  <rect x="11" y="12" width="1" height="1.5" fill="url(#carGrad)" rx="0.3"/>
  <rect x="28" y="12" width="1" height="1.5" fill="url(#carGrad)" rx="0.3"/>
  
  <!-- Wheel arches (top edges) -->
  <ellipse cx="12" cy="26" rx="2" ry="1" fill="#374151" opacity="0.8"/>
  <ellipse cx="28" cy="26" rx="2" ry="1" fill="#374151" opacity="0.8"/>
  
  <!-- Hood highlight -->
  <ellipse cx="20" cy="11" rx="8" ry="2" fill="#ffffff" opacity="0.3"/>
</svg>
