<?xml version="1.0" encoding="UTF-8"?> <svg xmlns="http://www.w3.org/2000/svg" width="500" height="100" viewBox="0 0 500 100" fill="none"><path d="M47.1468 8.78115C48.0449 6.01722 51.9551 6.01722 52.8532 8.78115L60.5522 32.4762C60.9538 33.7123 62.1056 34.5491 63.4053 34.5491H88.3198C91.226 34.5491 92.4343 38.268 90.0831 39.9762L69.9269 54.6205C68.8755 55.3845 68.4355 56.7386 68.8371 57.9746L76.5361 81.6697C77.4342 84.4336 74.2707 86.732 71.9196 85.0238L51.7634 70.3794C50.7119 69.6155 49.2881 69.6155 48.2366 70.3795L28.0804 85.0238C25.7293 86.732 22.5659 84.4336 23.4639 81.6697L31.1629 57.9746C31.5645 56.7386 31.1245 55.3845 30.0731 54.6205L9.91686 39.9762C7.56572 38.268 8.77405 34.5491 11.6802 34.5491H36.5947C37.8944 34.5491 39.0462 33.7123 39.4478 32.4762L47.1468 8.78115Z" fill="#FFCA00"></path><path d="M147.147 8.78115C148.045 6.01722 151.955 6.01722 152.853 8.78115L160.552 32.4762C160.954 33.7123 162.106 34.5491 163.405 34.5491H188.32C191.226 34.5491 192.434 38.268 190.083 39.9762L169.927 54.6205C168.875 55.3845 168.435 56.7386 168.837 57.9746L176.536 81.6697C177.434 84.4336 174.271 86.732 171.92 85.0238L151.763 70.3794C150.712 69.6155 149.288 69.6155 148.237 70.3795L128.08 85.0238C125.729 86.732 122.566 84.4336 123.464 81.6697L131.163 57.9746C131.565 56.7386 131.125 55.3845 130.073 54.6205L109.917 39.9762C107.566 38.268 108.774 34.5491 111.68 34.5491H136.595C137.894 34.5491 139.046 33.7123 139.448 32.4762L147.147 8.78115Z" fill="#FFCA00"></path><path d="M247.147 8.78115C248.045 6.01722 251.955 6.01722 252.853 8.78115L260.552 32.4762C260.954 33.7123 262.106 34.5491 263.405 34.5491H288.32C291.226 34.5491 292.434 38.268 290.083 39.9762L269.927 54.6205C268.875 55.3845 268.435 56.7386 268.837 57.9746L276.536 81.6697C277.434 84.4336 274.271 86.732 271.92 85.0238L251.763 70.3794C250.712 69.6155 249.288 69.6155 248.237 70.3795L228.08 85.0238C225.729 86.732 222.566 84.4336 223.464 81.6697L231.163 57.9746C231.565 56.7386 231.125 55.3845 230.073 54.6205L209.917 39.9762C207.566 38.268 208.774 34.5491 211.68 34.5491H236.595C237.894 34.5491 239.046 33.7123 239.448 32.4762L247.147 8.78115Z" fill="#FFCA00"></path><path d="M347.147 8.78115C348.045 6.01722 351.955 6.01722 352.853 8.78115L360.552 32.4762C360.954 33.7123 362.106 34.5491 363.405 34.5491H388.32C391.226 34.5491 392.434 38.268 390.083 39.9762L369.927 54.6205C368.875 55.3845 368.435 56.7386 368.837 57.9746L376.536 81.6697C377.434 84.4336 374.271 86.732 371.92 85.0238L351.763 70.3794C350.712 69.6155 349.288 69.6155 348.237 70.3795L328.08 85.0238C325.729 86.732 322.566 84.4336 323.464 81.6697L331.163 57.9746C331.565 56.7386 331.125 55.3845 330.073 54.6205L309.917 39.9762C307.566 38.268 308.774 34.5491 311.68 34.5491H336.595C337.894 34.5491 339.046 33.7123 339.448 32.4762L347.147 8.78115Z" fill="#FFCA00"></path><path d="M447.147 8.78115C448.045 6.01722 451.955 6.01722 452.853 8.78115L460.552 32.4762C460.954 33.7123 462.106 34.5491 463.405 34.5491H488.32C491.226 34.5491 492.434 38.268 490.083 39.9762L469.927 54.6205C468.875 55.3845 468.435 56.7386 468.837 57.9746L476.536 81.6697C477.434 84.4336 474.271 86.732 471.92 85.0238L451.763 70.3794C450.712 69.6155 449.288 69.6155 448.237 70.3795L428.08 85.0238C425.729 86.732 422.566 84.4336 423.464 81.6697L431.163 57.9746C431.565 56.7386 431.125 55.3845 430.073 54.6205L409.917 39.9762C407.566 38.268 408.774 34.5491 411.68 34.5491H436.595C437.894 34.5491 439.046 33.7123 439.448 32.4762L447.147 8.78115Z" fill="#FFCA00"></path></svg> 