<?xml version="1.0" encoding="UTF-8"?> <svg xmlns="http://www.w3.org/2000/svg" width="384" height="512" viewBox="0 0 384 512" fill="none"><path d="M192 0C141.099 0.0677323 92.3026 20.318 56.3103 56.3103C20.318 92.3026 0.0677323 141.099 0 192C0 329.84 178.88 502.48 186.48 509.76C187.958 511.197 189.939 512.001 192 512.001C194.061 512.001 196.042 511.197 197.52 509.76C205.12 502.48 384 329.84 384 192C383.932 141.099 363.682 92.3026 327.69 56.3103C291.697 20.318 242.901 0.0677323 192 0ZM192 280C174.595 280 157.581 274.839 143.11 265.169C128.638 255.5 117.359 241.756 110.699 225.676C104.038 209.596 102.295 191.902 105.691 174.832C109.086 157.762 117.468 142.082 129.775 129.775C142.082 117.468 157.762 109.086 174.832 105.691C191.902 102.295 209.596 104.038 225.676 110.699C241.756 117.359 255.5 128.638 265.169 143.11C274.839 157.581 280 174.595 280 192C279.985 215.334 270.709 237.709 254.209 254.209C237.709 270.709 215.334 279.985 192 280Z" fill="#942B2C"></path></svg> 