<?xml version="1.0" encoding="UTF-8"?> <svg xmlns="http://www.w3.org/2000/svg" width="107" height="26" viewBox="0 0 107 26" fill="none"> <path d="M0 6.76271V6.32337L0.00805155 5.44009V2.52344H2.20704V4.84204L6.51417 3.67814V2.52804H8.71431V4.59822L5.31806 5.5183L7.30659 7.16179H8.76262V8.4269H6.00237L3.22948 6.07495L2.20704 6.35097V8.42115H0.00345367V6.94902L0 6.76271Z" fill="black"></path> <path d="M10.1944 8.4246V2.52344H12.3946V6.01399L16.7523 4.10252V2.52344H18.9524V3.13069L20.2083 2.58324V4.15888L18.9524 4.70748V8.4246H16.7523V5.67586L12.3946 7.58963V8.4246H10.1944Z" fill="black"></path> <path d="M20.4614 4.88459V2.52344H29.8922V4.88459L27.6921 4.58096V3.72069H26.2774V8.4246H24.0773V3.72069H22.6604V4.58096L20.4614 4.88459Z" fill="black"></path> <path d="M30.2304 8.4246L32.2868 3.72069H31.2413V2.52344H37.0999L39.6624 8.4246H37.3863L36.7457 6.94902H33.1551L32.5145 8.4246H30.2304ZM33.6807 5.75177H36.227L35.3299 3.72069H34.5709L33.6807 5.75177Z" fill="black"></path> <path d="M40.5054 8.42449V2.52332H42.7056V6.01387L47.061 4.10241V2.52332H49.2611V3.13057L50.517 2.58312V4.15876L49.2611 4.70736V8.42449H47.061V5.67574L42.7033 7.58951V8.42449H40.5054ZM43.5394 2.64983V1.55493L44.5929 1.09489V0H46.785V1.18L43.5394 2.64983Z" fill="black"></path> <path d="M0.0459566 21.6367L0.0632039 20.0335L0.0574548 19.3089V12.812H18.6028V18.9524L13.2123 19.8587L19.3343 25.3033H12.8937L7.80453 20.7788L4.71651 21.2963V25.3125H0.0574548V22.0761L0.0459566 21.6367ZM4.71651 18.4878L13.9438 16.9351V15.3468H4.71651V18.4878Z" fill="#912D2D"></path> <path d="M20.0486 15.347V12.8168H27.3667V21.5576L29.6508 22.7709H36.5767V12.811H41.2346V25.3069H28.4018L22.7077 22.2741V15.347H20.0486Z" fill="#912D2D"></path> <path d="M43.1977 25.307L47.5531 15.3471H45.3357V12.8169H57.7396L63.1657 25.3116H58.3468L53.9914 15.3517H52.3812L48.0258 25.3116L43.1977 25.307Z" fill="black"></path> <path d="M64.9553 25.3067V12.812H69.6144V20.2037L78.8416 16.1519V12.8166H83.5007V14.1024L86.1643 12.9374V16.2727L83.5053 17.4331V25.3044H78.8462V19.4849L69.6144 23.539V25.3067H64.9553Z" fill="black"></path> <path d="M86.6958 17.8104V12.812H106.668V17.8104L102.009 17.1674V15.3468H99.011V25.3067H94.352V15.3468H91.3537V17.1674L86.6958 17.8104Z" fill="black"></path> </svg> 