<?xml version="1.0" encoding="UTF-8"?> <svg xmlns="http://www.w3.org/2000/svg" width="179" height="44" viewBox="0 0 179 44" fill="none"> <path d="M8.64531 0.00128174H29.8069C30.2499 0.0012816 30.6747 0.177162 30.988 0.490257C31.3014 0.803353 31.4776 1.22805 31.4779 1.67101C31.4779 2.11419 31.3019 2.53922 30.9885 2.8526C30.6751 3.16598 30.2501 3.34204 29.8069 3.34204H8.64531C8.20235 3.34169 7.77765 3.16548 7.46456 2.85214C7.15146 2.5388 6.97559 2.11396 6.97559 1.67101C6.97593 1.22827 7.15196 0.80378 7.46502 0.490722C7.77808 0.177664 8.20258 0.00162939 8.64531 0.00128174Z" fill="#912D2D"></path> <path d="M16.0028 7.6214H1.52401C0.682324 7.6214 0 8.30372 0 9.14541C0 9.9871 0.682324 10.6694 1.52401 10.6694H16.0028C16.8445 10.6694 17.5268 9.9871 17.5268 9.14541C17.5268 8.30372 16.8445 7.6214 16.0028 7.6214Z" fill="#912D2D"></path> <path d="M6.09603 33.5309H17.5255C17.7257 33.5307 17.9239 33.57 18.1089 33.6465C18.2939 33.7231 18.4619 33.8353 18.6035 33.9769C18.7451 34.1184 18.8573 34.2865 18.9338 34.4715C19.0104 34.6565 19.0497 34.8547 19.0495 35.0549C19.0495 35.4591 18.8889 35.8467 18.6031 36.1325C18.3173 36.4183 17.9297 36.5789 17.5255 36.5789H6.09603C5.69184 36.5789 5.3042 36.4183 5.0184 36.1325C4.73259 35.8467 4.57202 35.4591 4.57202 35.0549C4.57185 34.8547 4.61115 34.6565 4.68768 34.4715C4.76421 34.2865 4.87646 34.1184 5.01801 33.9769C5.15956 33.8353 5.32764 33.7231 5.51262 33.6465C5.6976 33.57 5.89585 33.5307 6.09603 33.5309Z" fill="#912D2D"></path> <path d="M1.96376 40.0956H29.8069C30.25 40.0956 30.6751 40.2716 30.9885 40.585C31.3018 40.8984 31.4779 41.3234 31.4779 41.7666C31.4775 42.2096 31.3013 42.6343 30.988 42.9474C30.6746 43.2605 30.2498 43.4363 29.8069 43.4363H1.96376C1.5208 43.4363 1.09596 43.2605 0.782621 42.9474C0.46928 42.6343 0.293073 42.2096 0.292725 41.7666C0.292725 41.3234 0.468779 40.8984 0.782159 40.585C1.09554 40.2716 1.52057 40.0956 1.96376 40.0956Z" fill="#912D2D"></path> <path fill-rule="evenodd" clip-rule="evenodd" d="M29.8068 43.4363C34.1022 43.4363 38.3012 42.1626 41.8728 39.7762C45.4443 37.3897 48.228 33.9978 49.8718 30.0294C51.5156 26.0609 51.9456 21.6941 51.1076 17.4812C50.2696 13.2683 48.2012 9.39845 45.1639 6.36111C42.1265 3.32377 38.2567 1.25532 34.0438 0.417319C29.8309 -0.420681 25.4641 0.0094085 21.4956 1.65321C17.5271 3.297 14.1352 6.08067 11.7488 9.65221C9.36237 13.2237 8.08862 17.4227 8.08862 21.7182C8.08862 27.4782 10.3768 33.0023 14.4497 37.0752C18.5227 41.1482 24.0468 43.4363 29.8068 43.4363ZM42.3966 21.6302C42.4014 24.7707 41.2086 27.7949 39.0611 30.0865L35.8083 25.8518C36.7032 24.6264 37.1842 23.1476 37.1814 21.6302V21.562L42.2614 19.8004C42.3517 20.4061 42.3969 21.0178 42.3966 21.6302ZM32.7314 28.2671L35.9737 32.4939C34.3145 33.4029 32.4695 33.9206 30.5796 34.0075C28.6897 34.0944 26.805 33.7482 25.0694 32.9953L28.3012 28.6005C29.7761 28.9595 31.3268 28.8428 32.7314 28.2671ZM24.883 26.642C23.5722 25.3034 22.8393 23.5037 22.8418 21.6302C22.8418 21.52 22.8418 21.4084 22.8496 21.2994L17.8063 19.5155C17.4493 21.5898 17.6259 23.7208 18.3194 25.7081C19.0129 27.6954 20.2005 29.4736 21.7706 30.8754L24.883 26.642ZM24.0954 17.5846L19.0796 15.8151C19.9796 14.1248 21.2588 12.666 22.8171 11.5531C24.3753 10.4401 26.1702 9.70313 28.0609 9.40006V14.7308C26.4433 15.1892 25.0377 16.2005 24.0888 17.5885L24.0954 17.5846ZM41.0879 16.0671L36.0774 17.8051C35.1325 16.3094 33.6691 15.2148 31.9674 14.7308V9.40006C33.9062 9.71103 35.7435 10.478 37.328 11.6377C38.9124 12.7975 40.1988 14.317 41.0813 16.0711L41.0879 16.0671ZM46.3136 21.6263C46.3144 24.8491 45.3595 27.9998 43.5697 30.68C41.7799 33.3601 39.2356 35.4494 36.2584 36.6836C33.2812 37.9177 30.005 38.2414 26.8439 37.6136C23.6828 36.9858 20.7788 35.4348 18.4992 33.1566C16.2196 30.8785 14.6666 27.9755 14.0368 24.8148C13.407 21.6541 13.7285 18.3776 14.9608 15.3997C16.193 12.4217 18.2806 9.876 20.9596 8.08446C23.6386 6.29292 26.7887 5.336 30.0116 5.33471C34.3334 5.33471 38.4782 7.05155 41.5342 10.1076C44.5902 13.1636 46.3071 17.3084 46.3071 21.6302L46.3136 21.6263ZM33.2775 21.6263C33.2778 22.271 33.0868 22.9013 32.7288 23.4374C32.3708 23.9736 31.8619 24.3916 31.2663 24.6385C30.6708 24.8854 30.0154 24.9501 29.3831 24.8245C28.7507 24.6989 28.1698 24.3886 27.7139 23.9328C27.2579 23.477 26.9474 22.8962 26.8215 22.264C26.6956 21.6317 26.7601 20.9762 27.0067 20.3806C27.2534 19.785 27.6712 19.2758 28.2072 18.9176C28.7432 18.5594 29.3734 18.3682 30.0181 18.3682C30.8819 18.37 31.7096 18.7145 32.3195 19.3261C32.9294 19.9378 33.2716 20.7665 33.2709 21.6302L33.2775 21.6263Z" fill="#912D2D"></path> <path d="M57.2537 17.4152V16.9138L57.2629 15.9057V12.5767H59.7727V15.2231L64.6886 13.8946V12.582H67.1998V14.9448L63.3235 15.9949L65.5931 17.8707H67.2549V19.3147H64.1045L60.9396 16.6303L59.7727 16.9453V19.3081H57.2576V17.6279L57.2537 17.4152Z" fill="#1D1D1B"></path> <path d="M68.8889 19.312V12.5767H71.4001V16.5607L76.3738 14.379V12.5767H78.8849V13.2698L80.3184 12.645V14.4433L78.8849 15.0695V19.312H76.3738V16.1748L71.4001 18.359V19.312H68.8889Z" fill="#1D1D1B"></path> <path d="M80.6072 15.2716V12.5767H91.3711V15.2716L88.86 14.9251V13.9432H87.2454V19.312H84.7342V13.9432H83.117V14.9251L80.6072 15.2716Z" fill="#1D1D1B"></path> <path d="M91.7571 19.312L94.1041 13.9432H92.9109V12.5767H99.5977L102.522 19.312H99.9245L99.1934 17.6279H95.0952L94.3641 19.312H91.7571ZM95.6951 16.2614H98.6014L97.5775 13.9432H96.7111L95.6951 16.2614Z" fill="#1D1D1B"></path> <path d="M103.485 19.312V12.5767H105.996V16.5607L110.967 14.379V12.5767H113.478V13.2698L114.911 12.645V14.4433L113.478 15.0695V19.312H110.967V16.1748L105.993 18.359V19.312H103.485ZM106.947 12.7211V11.4714L108.15 10.9464V9.69672H110.652V11.0435L106.947 12.7211Z" fill="#1D1D1B"></path> <path d="M57.3059 34.392L57.3256 32.5622L57.319 31.7352V24.3199H78.4859V31.3282L72.3334 32.3626L79.3207 38.5768H71.9698L66.1612 33.4128L62.6367 34.0035V38.5873H57.319V34.8935L57.3059 34.392ZM62.6367 30.7979L73.1682 29.0258V27.213H62.6367V30.7979Z" fill="#912D2D"></path> <path d="M80.1362 27.2131V24.3252H88.4888V34.3015L91.0957 35.6864H99.0006V24.3186H104.317V38.5808H89.6702L83.1711 35.1193V27.2131H80.1362Z" fill="#912D2D"></path> <path d="M106.557 38.5808L111.528 27.213H108.998V24.3251H123.155L129.348 38.586H123.848L118.877 27.2183H117.039L112.068 38.586L106.557 38.5808Z" fill="#1D1D1B"></path> <path d="M131.391 38.5808V24.3199H136.708V32.7564L147.24 28.1319V24.3251H152.557V25.7927L155.598 24.463V28.2697L152.563 29.5942V38.5781H147.245V31.936L136.708 36.5632V38.5808H131.391Z" fill="#1D1D1B"></path> <path d="M156.204 30.0248V24.3199H179V30.0248L173.682 29.291V27.213H170.26V38.5808H164.943V27.213H161.52V29.291L156.204 30.0248Z" fill="#1D1D1B"></path> </svg> 