<?xml version="1.0" encoding="UTF-8"?> <svg xmlns="http://www.w3.org/2000/svg" width="2131" height="536" viewBox="0 0 2131 536" fill="none"> <path d="M102.923 0.015625H354.852C360.126 0.0156233 365.183 2.18486 368.914 6.04645C372.644 9.90804 374.742 15.1461 374.746 20.6093C374.746 26.0754 372.65 31.3176 368.919 35.1827C365.188 39.0478 360.128 41.2191 354.852 41.2191H102.923C97.6493 41.2148 92.5933 39.0416 88.8659 35.1769C85.1385 31.3123 83.0447 26.0726 83.0447 20.6093C83.0488 15.1489 85.1444 9.91331 88.8714 6.05218C92.5984 2.19105 97.652 0.0199128 102.923 0.015625Z" fill="#912D2D"></path> <path d="M190.514 94.001H18.1434C8.12309 94.001 0 102.416 0 112.798C0 123.179 8.12309 131.594 18.1434 131.594H190.514C200.534 131.594 208.657 123.179 208.657 112.798C208.657 102.416 200.534 94.001 190.514 94.001Z" fill="#912D2D"></path> <path d="M72.5704 413.602H208.638C211.021 413.599 213.382 414.084 215.584 415.028C217.786 415.972 219.787 417.356 221.472 419.102C223.157 420.848 224.494 422.921 225.405 425.202C226.316 427.484 226.784 429.929 226.782 432.398C226.782 437.383 224.87 442.164 221.468 445.689C218.065 449.214 213.45 451.195 208.638 451.195H72.5704C67.7585 451.195 63.1437 449.214 59.7411 445.689C56.3386 442.164 54.427 437.383 54.427 432.398C54.425 429.929 54.8929 427.484 55.8039 425.202C56.715 422.921 58.0513 420.848 59.7365 419.102C61.4217 417.356 63.4226 415.972 65.6248 415.028C67.827 414.084 70.1872 413.599 72.5704 413.602Z" fill="#912D2D"></path> <path d="M23.3816 494.572H354.854C360.131 494.572 365.191 496.744 368.921 500.609C372.652 504.474 374.748 509.716 374.748 515.182C374.744 520.645 372.646 525.883 368.916 529.745C365.186 533.607 360.128 535.776 354.854 535.776H23.3816C18.1082 535.776 13.0505 533.607 9.32015 529.745C5.58981 525.883 3.49206 520.645 3.48792 515.182C3.48792 509.716 5.58385 504.474 9.31464 500.609C13.0454 496.744 18.1055 494.572 23.3816 494.572Z" fill="#912D2D"></path> <path fill-rule="evenodd" clip-rule="evenodd" d="M354.851 535.726C405.989 535.726 455.978 520.016 498.497 490.583C541.016 461.15 574.156 419.315 593.725 370.37C613.295 321.424 618.415 267.566 608.438 215.606C598.462 163.645 573.837 115.917 537.677 78.4554C501.518 40.994 455.448 15.4826 405.293 5.14704C355.138 -5.18851 303.151 0.116041 255.906 20.39C208.661 40.6639 168.281 74.9965 139.87 119.046C111.46 163.096 96.2957 214.885 96.2957 267.863C96.2957 338.905 123.536 407.037 172.025 457.271C220.513 507.505 286.278 535.726 354.851 535.726ZM504.734 266.778C504.791 305.512 490.59 342.811 465.024 371.074L426.3 318.845C436.953 303.732 442.679 285.493 442.646 266.778V265.936L503.124 244.21C504.198 251.681 504.737 259.225 504.734 266.778ZM389.669 348.635L428.269 400.767C408.516 411.977 386.551 418.363 364.052 419.435C341.552 420.506 319.115 416.237 298.452 406.951L336.926 352.747C354.486 357.175 372.947 355.736 389.669 348.635ZM296.233 328.592C280.628 312.081 271.903 289.885 271.932 266.778C271.932 265.418 271.932 264.042 272.026 262.698L211.985 240.696C207.735 266.28 209.837 292.563 218.093 317.074C226.349 341.584 240.488 363.515 259.18 380.804L296.233 328.592ZM286.856 216.881L227.144 195.057C237.858 174.21 253.087 156.218 271.638 142.491C290.189 128.763 311.557 119.675 334.067 115.936V181.684C314.808 187.338 298.074 199.81 286.778 216.93L286.856 216.881ZM489.153 198.165L429.503 219.601C418.254 201.153 400.832 187.653 380.574 181.684V115.936C403.655 119.772 425.528 129.231 444.391 143.535C463.254 157.839 478.569 176.58 489.075 198.214L489.153 198.165ZM551.366 266.73C551.375 306.479 540.007 345.338 518.699 378.394C497.392 411.45 467.101 437.218 431.658 452.44C396.214 467.662 357.21 471.654 319.577 463.911C281.944 456.168 247.373 437.038 220.234 408.94C193.095 380.842 174.607 345.038 167.109 306.056C159.611 267.073 163.439 226.662 178.109 189.933C192.779 153.204 217.632 121.807 249.526 99.7104C281.419 77.6143 318.921 65.8121 357.289 65.7961C408.741 65.7961 458.085 86.971 494.467 124.662C530.849 162.354 551.288 213.475 551.288 266.778L551.366 266.73ZM396.17 266.73C396.173 274.681 393.9 282.455 389.638 289.068C385.376 295.681 379.317 300.836 372.227 303.881C365.137 306.926 357.335 307.725 349.807 306.175C342.279 304.626 335.363 300.799 329.935 295.177C324.507 289.556 320.809 282.393 319.311 274.595C317.813 266.796 318.58 258.712 321.516 251.366C324.453 244.02 329.426 237.74 335.808 233.322C342.189 228.904 349.692 226.546 357.367 226.546C367.65 226.568 377.504 230.817 384.765 238.361C392.026 245.904 396.1 256.125 396.092 266.778L396.17 266.73Z" fill="#912D2D"></path> <path d="M681.603 214.789V208.605L681.713 196.171V155.113H711.592V187.752L770.117 171.368V155.178H800.012V184.32L753.864 197.272L780.884 220.407H800.668V238.216H763.163L725.485 205.108L711.592 208.993V238.135H681.65V217.412L681.603 214.789Z" fill="#1D1D1B"></path> <path d="M820.128 238.184V155.113H850.023V204.25L909.235 177.342V155.113H939.131V163.662L956.196 155.955V178.135L939.131 185.858V238.184H909.235V199.49L850.023 226.43V238.184H820.128Z" fill="#1D1D1B"></path> <path d="M959.634 188.351V155.113H1087.78V188.351L1057.88 184.077V171.967H1038.66V238.184H1008.77V171.967H989.513V184.077L959.634 188.351Z" fill="#1D1D1B"></path> <path d="M1092.37 238.184L1120.32 171.967H1106.11V155.113H1185.72L1220.53 238.184H1189.61L1180.9 217.412H1132.11L1123.41 238.184H1092.37ZM1139.26 200.559H1173.85L1161.67 171.967H1151.35L1139.26 200.559Z" fill="#1D1D1B"></path> <path d="M1231.98 238.186V155.116H1261.88V204.252L1321.06 177.344V155.116H1350.96V163.664L1368.02 155.957V178.138L1350.96 185.86V238.186H1321.06V199.492L1261.85 226.432V238.186H1231.98ZM1273.21 156.896V141.483L1287.52 135.008V119.595H1317.31V136.206L1273.21 156.896Z" fill="#1D1D1B"></path> <path d="M682.231 424.176L682.466 401.607L682.388 391.407V299.95H934.38V386.388L861.134 399.146L944.319 475.79H856.805L787.654 412.098L745.694 419.384V475.919H682.388V430.36L682.231 424.176ZM745.694 379.848L871.073 357.991V335.633H745.694V379.848Z" fill="#912D2D"></path> <path d="M954.024 335.631V300.013H1053.46V423.056L1084.5 440.137H1178.61V299.932H1241.9V475.836H1067.53L990.154 433.143V335.631H954.024Z" fill="#912D2D"></path> <path d="M1268.57 475.839L1327.75 335.634H1297.62V300.016H1466.16L1539.89 475.903H1474.42L1415.24 335.698H1393.36L1334.18 475.903L1268.57 475.839Z" fill="#1D1D1B"></path> <path d="M1564.21 475.838V299.95H1627.52V404.003L1752.89 346.966V300.015H1816.2V318.115L1852.39 301.715V348.666L1816.26 365.001V475.806H1752.96V393.884L1627.52 450.954V475.838H1564.21Z" fill="#1D1D1B"></path> <path d="M1859.61 370.312V299.95H2131V370.312L2067.69 361.262V335.633H2026.95V475.838H1963.65V335.633H1922.91V361.262L1859.61 370.312Z" fill="#1D1D1B"></path> </svg> 