<?xml version="1.0" encoding="UTF-8"?> <svg xmlns="http://www.w3.org/2000/svg" viewBox="0 0 48.00 48.00" data-guides="{&quot;vertical&quot;:[],&quot;horizontal&quot;:[]}"><defs></defs><path fill="#ffffff" stroke="none" fill-opacity="1" stroke-width="1" stroke-opacity="1" clip-rule="evenodd" fill-rule="evenodd" id="tSvg1435750a84a" title="Path 1" d="M12.33 8.091C10.918 9.504 9.506 10.917 8.094 12.33C11.982 16.22 15.87 20.11 19.758 24C15.868 27.89 11.978 31.78 8.088 35.67C9.503 37.083 10.918 38.496 12.333 39.909C16.222 36.02 20.111 32.131 24 28.242C27.89 32.132 31.78 36.022 35.67 39.912C37.083 38.497 38.496 37.082 39.909 35.667C36.02 31.778 32.131 27.889 28.242 24C32.132 20.11 36.022 16.22 39.912 12.33C38.497 10.917 37.082 9.504 35.667 8.091C31.778 11.98 27.889 15.869 24 19.758C20.11 15.868 16.22 11.978 12.33 8.091Z"></path></svg> 